<?xml version="1.0" encoding="utf-8"?>
<!-- Generator: Adobe Illustrator 16.0.3, SVG Export Plug-In . SVG Version: 6.00 Build 0)  -->
<!DOCTYPE svg PUBLIC "-//W3C//DTD SVG 1.1//EN" "http://www.w3.org/Graphics/SVG/1.1/DTD/svg11.dtd">
<svg version="1.1" id="Layer_1" xmlns="http://www.w3.org/2000/svg" xmlns:xlink="http://www.w3.org/1999/xlink" x="0px" y="0px"
	 width="240px" height="240px" viewBox="0 0 240 240" enable-background="new 0 0 240 240" xml:space="preserve">
<path id="Background" fill-rule="evenodd" clip-rule="evenodd" fill="#231F20" d="M240,216c0,13.254-10.745,24-24,24H24
	c-13.255,0-24-10.746-24-24V24C0,10.745,10.745,0,24,0h192c13.255,0,24,10.745,24,24V216z"/>
<path id="Logo" fill="#FFFFFF" d="M69.463,130.573c2.347,12.969,8.197,23.472,17.55,31.507c9.35,8.035,20.461,12.052,33.339,12.052
	c9.206,0,17.593-2.206,25.164-6.625c7.563-4.419,13.603-10.664,18.114-18.749h31.437c-7.147,17.198-17.128,30.358-29.956,39.472
	s-27.75,13.673-44.758,13.673c-11.467,0-21.945-2.021-31.436-6.061c-9.494-4.038-18.093-10.101-25.797-18.186
	c-7.239-7.611-12.898-16.473-16.987-26.572C42.044,140.983,40,130.664,40,120.141c0-10.9,1.854-21.096,5.568-30.59
	c3.711-9.491,9.184-18.136,16.423-25.938c7.704-8.458,16.397-14.823,26.079-19.101c9.678-4.275,20.25-6.415,31.718-6.415
	c13.625,0,26.291,3.172,37.992,9.516c11.7,6.344,21.356,15.204,28.969,26.573c4.512,7.048,7.845,14.781,10.009,23.189
	c2.157,8.412,3.242,18.023,3.242,28.829v4.37H69.463z M169.41,105.48c-3.481-12.779-9.495-22.671-18.044-29.674
	c-8.558-6.999-18.799-10.502-30.731-10.502c-12.219,0-22.816,3.595-31.789,10.784c-8.976,7.189-15.154,16.987-18.538,29.392H169.41z
	"/>
</svg>
